# Blender 3.4.1
# www.blender.org
o Knight
v -1.000000 0.000000 1.000000
v -0.296684 2.000000 0.621630
v -1.000000 0.000000 -1.000000
v -0.296684 2.000000 -0.621630
v 1.000000 0.000000 1.000000
v 0.296684 2.000000 0.621630
v 1.000000 0.000000 -1.000000
v 0.296684 2.000000 -0.621630
v -1.000000 2.000000 1.000000
v -1.000000 2.000000 -1.000000
v 1.000000 2.000000 -1.000000
v 1.000000 2.000000 1.000000
v -0.296684 3.102148 0.621630
v -0.296684 4.047391 -0.621630
v 0.296684 4.047391 -0.621630
v 0.296684 3.102148 0.621630
v -0.140971 4.234673 0.967828
v -0.140971 4.683809 0.377088
v 0.140971 4.683809 0.377088
v 0.140971 4.234673 0.967828
vn -1.0000 -0.0000 -0.0000
vn -0.0000 -0.0000 -1.0000
vn 1.0000 -0.0000 -0.0000
vn -0.0000 -0.0000 1.0000
vn -0.0000 -1.0000 -0.0000
vn -0.0000 1.0000 -0.0000
vn -0.0000 -0.2923 0.9563
vn -0.0000 0.7960 0.6052
vn -0.0000 0.8433 -0.5374
vn 0.9903 0.1105 0.0840
vn -0.9903 0.1105 0.0840
s 0
f 9//1 3//1 1//1
f 10//2 7//2 3//2
f 11//3 5//3 7//3
f 12//4 1//4 5//4
f 7//5 1//5 3//5
f 8//3 16//3 6//3
f 2//6 10//6 9//6
f 8//6 10//6 4//6
f 8//6 12//6 11//6
f 2//6 12//6 6//6
f 16//7 17//7 13//7
f 4//1 13//1 14//1
f 6//4 13//4 2//4
f 4//2 15//2 8//2
f 18//8 20//8 19//8
f 14//9 19//9 15//9
f 16//10 19//10 20//10
f 13//11 18//11 14//11
f 9//1 10//1 3//1
f 10//2 11//2 7//2
f 11//3 12//3 5//3
f 12//4 9//4 1//4
f 7//5 5//5 1//5
f 8//3 15//3 16//3
f 2//6 4//6 10//6
f 8//6 11//6 10//6
f 8//6 6//6 12//6
f 2//6 9//6 12//6
f 16//7 20//7 17//7
f 4//1 2//1 13//1
f 6//4 16//4 13//4
f 4//2 14//2 15//2
f 18//8 17//8 20//8
f 14//9 18//9 19//9
f 16//10 15//10 19//10
f 13//11 17//11 18//11
